<?xml version="1.0" encoding="UTF-8"?>
<svg xmlns="http://www.w3.org/2000/svg" xmlns:xlink="http://www.w3.org/1999/xlink" width="0" height="0">
<symbol id="loudspeaker" width="39" height="37" viewBox="0 0 39 37" fill="none">
<path d="M31.3357 13.0215C33.8562 11.0404 32.9856 7.12262 29.836 6.31066C29.013 6.0985 28.161 6.14263 27.38 6.42889L24.8774 2.25793C23.859 0.560599 21.3333 0.515619 20.2489 2.17053C17.1708 6.86843 13.07 10.8641 8.2015 13.8962C7.92426 14.0685 7.82149 14.4246 7.98554 14.7144C8.01185 14.7608 12.1572 21.6688 12.1846 21.7145C12.3629 22.0116 12.7577 22.1137 13.0669 21.942C13.3758 21.7704 13.4816 21.3903 13.3033 21.093L9.41597 14.6141C14.0582 11.6279 18.1696 7.67449 21.3416 2.83342C21.9089 1.96747 23.2276 1.99435 23.7587 2.87941L32.7197 17.8144C33.2515 18.7006 32.614 19.8118 31.5526 19.8516C25.598 20.0748 19.768 21.5403 14.4377 24.1636C14.415 24.1747 8.37168 27.5326 7.9555 27.7638C6.87521 28.364 5.48902 28.0066 4.86544 26.9671L1.59405 21.5146C0.97039 20.4752 1.34184 19.1414 2.42205 18.5412L6.35933 16.3539C6.66821 16.1823 6.77405 15.8022 6.59571 15.5049C6.41737 15.2076 6.02227 15.1059 5.71346 15.2775L1.77619 17.4648C0.0791766 18.4076 -0.504362 20.5031 0.475415 22.1361L3.74688 27.5885C4.72674 29.2216 6.90452 29.7829 8.60153 28.8401L8.75048 28.7574L12.7895 35.489C13.3696 36.4559 14.6525 36.7871 15.6579 36.2286L17.0746 35.4416C18.0797 34.8832 18.4234 33.6487 17.8431 32.6815L14.9806 27.9106C14.8022 27.6134 14.4072 27.5116 14.0983 27.6832C13.7894 27.8548 13.6836 28.2349 13.8619 28.5321L16.7245 33.303C16.9478 33.6751 16.8156 34.1503 16.4287 34.3651L15.0121 35.1522C14.6253 35.367 14.1315 35.2397 13.9082 34.8675L9.8692 28.1359L15.0406 25.2629C20.101 22.775 25.7307 21.3136 31.603 21.0935C33.6381 21.0171 34.8553 18.8873 33.8384 17.1928L31.3357 13.0215ZM31.1512 8.72914C31.7888 9.79186 31.5598 11.1106 30.6771 11.9239L28.0384 7.52596C29.1952 7.19945 30.5033 7.64924 31.1512 8.72914ZM37.4682 5.96613L35.7971 6.89454C35.488 7.06622 35.0931 6.96422 34.9149 6.66708C34.7365 6.36985 34.8424 5.98974 35.1513 5.81814L36.8224 4.88973C37.1315 4.71805 37.5264 4.82005 37.7046 5.11719C37.883 5.41441 37.7771 5.79452 37.4682 5.96613ZM30.2815 2.42402L30.6891 0.960752C30.7814 0.629194 31.1354 0.432575 31.4802 0.52129C31.8247 0.610162 32.0292 0.950964 31.9368 1.28244L31.5293 2.74571C31.4371 3.07641 31.0839 3.27404 30.7382 3.18517C30.3937 3.0963 30.1892 2.75558 30.2815 2.42402ZM38.7287 12.6022C38.6514 12.8798 38.3904 13.0629 38.1052 13.0629C37.9883 13.0629 38.0701 13.0757 36.4169 12.6495C36.0724 12.5606 35.8679 12.2199 35.9602 11.8883C36.0526 11.5568 36.4067 11.3602 36.7512 11.4489L38.272 11.8409C38.6165 11.9298 38.8211 12.2706 38.7287 12.6022Z" fill="#007FFC"/>
</symbol>

<symbol id="home" width="39" height="36" viewBox="0 0 39 36" fill="none">
<path d="M36.56 20.325V33C36.56 34.6542 35.1214 36 33.3532 36H5.13362C3.3654 36 1.92684 34.6542 1.92684 33V20.325C1.92684 19.9937 2.21401 19.725 2.5682 19.725C2.92238 19.725 3.20955 19.9937 3.20955 20.325V33C3.20955 33.9925 4.07265 34.8 5.13362 34.8H12.1083V24.675C12.1083 23.0208 13.5469 21.675 15.3151 21.675H23.1717C24.9399 21.675 26.3785 23.0208 26.3785 24.675V32.4C26.3785 32.7313 26.0913 33 25.7371 33C25.3829 33 25.0958 32.7313 25.0958 32.4V24.675C25.0958 23.6825 24.2326 22.875 23.1717 22.875H15.3151C14.2542 22.875 13.3911 23.6825 13.3911 24.675V34.8H18.6021V25.35C18.6021 25.0187 18.8892 24.75 19.2434 24.75C19.5976 24.75 19.8848 25.0187 19.8848 25.35V34.8H33.3532C34.4141 34.8 35.2773 33.9925 35.2773 33V20.325C35.2773 19.9937 35.5644 19.725 35.9186 19.725C36.2728 19.725 36.56 19.9936 36.56 20.325ZM4.17158 9.6C4.17158 9.93135 4.45875 10.2 4.81294 10.2C39.7081 10.2 37.9779 10.2584 38.2329 10.0754C38.3661 9.9795 38.4533 9.84112 38.4772 9.68303C38.5129 9.4419 38.7431 10.0349 34.2623 0.361425C34.1606 0.141975 33.9295 0 33.6738 0H4.81286C4.55728 0 4.32599 0.14205 4.22441 0.361425L0.0556098 9.36143C-0.0180658 9.52058 0.00269808 9.26798 0.00269808 13.3224C0.0073479 16.0513 2.38092 18.2714 5.29387 18.2714C7.29642 18.2714 9.04403 17.2222 9.94233 15.6797C11.9486 19.129 17.2333 19.1328 19.2433 15.682C21.2517 19.13 26.5341 19.1308 28.543 15.682C29.4406 17.2232 31.1884 18.2714 33.1928 18.2714C36.1104 18.2714 38.484 16.0509 38.484 13.3214C38.484 12.9901 38.1968 12.7214 37.8426 12.7214C37.4884 12.7214 37.2013 12.9901 37.2013 13.3214C37.2013 15.3892 35.4031 17.0714 33.1928 17.0714C30.9825 17.0714 29.1843 15.3892 29.1843 13.3214C29.1843 12.9901 28.8972 12.7214 28.543 12.7214C28.1888 12.7214 27.9016 12.9901 27.9016 13.3214C27.9016 15.3892 26.1034 17.0714 23.8932 17.0714C21.6829 17.0714 19.8847 15.3892 19.8847 13.3214C19.8847 12.9901 19.5975 12.7214 19.2433 12.7214C18.8891 12.7214 18.602 12.9901 18.602 13.3214C18.602 15.3892 16.8038 17.0714 14.5935 17.0714C12.4324 17.0714 10.585 15.4466 10.585 13.2914C10.585 12.9601 10.2979 12.6914 9.94369 12.6914C9.58951 12.6914 9.30234 12.9601 9.30234 13.2914C9.30234 15.4284 7.46654 17.0714 5.29387 17.0714C3.08713 17.0714 1.28885 15.3887 1.28541 13.3214V9.72435L5.23399 1.2H33.2528L36.8658 9H4.81294C4.45867 9 4.17158 9.26858 4.17158 9.6Z" fill="#52C29D"/>
</symbol>

<symbol id="application" width="26" height="36" viewBox="0 0 26 36" fill="none">
<path d="M21.8187 0H4.18134C2.41312 0 0.974548 1.3458 0.974548 3V33C0.974548 34.6542 2.41312 36 4.18134 36H21.8187C23.5869 36 25.0255 34.6542 25.0255 33V3C25.0255 1.3458 23.5869 0 21.8187 0ZM21.8187 34.8H4.18134C3.12045 34.8 2.25726 33.9925 2.25726 33V3C2.25726 2.00745 3.12045 1.2 4.18134 1.2H21.8187C22.8796 1.2 23.7428 2.00745 23.7428 3V29.55H5.38389C5.0297 29.55 4.74253 29.8187 4.74253 30.15C4.74253 30.4814 5.0297 30.75 5.38389 30.75H23.7428V33C23.7428 33.9925 22.8796 34.8 21.8187 34.8ZM14.4431 32.625C14.4431 32.9564 14.1559 33.225 13.8017 33.225H12.1983C11.8441 33.225 11.557 32.9564 11.557 32.625C11.557 32.2937 11.8441 32.025 12.1983 32.025H13.8017C14.1559 32.025 14.4431 32.2937 14.4431 32.625ZM8.10806 23.7H17.892C18.9889 23.7 19.8437 22.8079 19.7251 21.7883L18.8673 14.4176C18.7653 13.5407 17.9771 12.8794 17.0342 12.8794H16.4405V11.7686C16.4404 9.99383 14.8971 8.55 13 8.55C11.103 8.55 9.55961 9.99383 9.55961 11.7686V12.8793H8.96587C8.02292 12.8793 7.23493 13.5406 7.13279 14.4176L6.27505 21.7883C6.15632 22.8084 7.01181 23.7 8.10806 23.7ZM7.55015 21.9182L8.40789 14.5475C8.439 14.2806 8.67878 14.0793 8.96579 14.0793H9.55953V15.0155C9.55953 15.3469 9.8467 15.6155 10.2009 15.6155C10.5551 15.6155 10.8422 15.3469 10.8422 15.0155V11.7686C10.8422 10.6556 11.8101 9.75 12.9999 9.75C14.1897 9.75 15.1576 10.6555 15.1576 11.7686V12.8794H12.3834C12.0292 12.8794 11.7421 13.148 11.7421 13.4794C11.7421 13.8107 12.0292 14.0794 12.3834 14.0794H15.1576V15.0155C15.1576 15.3469 15.4448 15.6155 15.799 15.6155C16.1532 15.6155 16.4403 15.3469 16.4403 15.0155V14.0794H17.0341C17.3211 14.0794 17.5609 14.2807 17.592 14.5475L18.4497 21.9182C18.4858 22.2284 18.2275 22.5 17.8918 22.5H8.10806C7.77391 22.5 7.514 22.2296 7.55015 21.9182Z" fill="#007FFC"/>
</symbol>

<symbol id="dribbble-icon" width="38" height="38" viewBox="0 0 38 38" fill="none">
<rect width="38" height="38" rx="5" fill="#EFEEF3"/>
<path d="M18.6875 9C13.3458 9 9 13.3458 9 18.6875C9 24.0292 13.3458 28.375 18.6875 28.375C24.0292 28.375 28.375 24.0292 28.375 18.6875C28.375 13.3458 24.0292 9 18.6875 9ZM25.0926 13.4674C26.245 14.8755 26.9429 16.6689 26.9611 18.6219C26.6883 18.5642 23.9526 18.0093 21.1993 18.3556C20.9746 17.8071 20.7626 17.3246 20.4721 16.73C23.5315 15.4809 24.9181 13.7034 25.0926 13.4674ZM24.1727 12.5105C24.0239 12.7225 22.7783 14.3967 19.8359 15.4996C18.48 13.0083 16.9771 10.9618 16.7484 10.6555C19.3725 10.023 22.1377 10.7051 24.1727 12.5105ZM15.1696 11.2117C15.3877 11.5109 16.8664 13.56 18.2374 15.9972C14.3668 17.0251 10.9577 17.0103 10.5877 17.0054C11.1242 14.4377 12.8546 12.3036 15.1696 11.2117ZM10.4129 18.7001C10.4129 18.6155 10.4146 18.5313 10.4171 18.4473C10.7791 18.4547 14.789 18.5064 18.9213 17.2697C19.1581 17.7333 19.3844 18.2039 19.5921 18.6739C16.6 19.5167 13.8814 21.9367 12.5401 24.2328C11.2185 22.7658 10.4129 20.8254 10.4129 18.7001ZM13.6085 25.228C14.4728 23.4611 16.8186 21.1802 20.1545 20.0422C21.3162 23.0611 21.7967 25.5911 21.9197 26.3171C19.2591 27.4504 16.0598 27.1395 13.6085 25.228ZM23.3108 25.5596C23.226 25.0562 22.7856 22.6339 21.7033 19.6598C24.2963 19.2448 26.5744 19.9242 26.8575 20.0136C26.4887 22.3159 25.1671 24.3043 23.3108 25.5596Z" fill="#0D0D0D"/>
</symbol>

<symbol id="facebook-icon" width="38" height="38" viewBox="0 0 38 38" fill="none">
<rect width="38" height="38" rx="5" fill="#EFEEF3"/>
<path d="M23.3447 20.5025L23.8632 17.1235H20.621V14.9307C20.621 14.0063 21.0739 13.1052 22.526 13.1052H24V10.2283C24 10.2283 22.6624 10 21.3835 10C18.7134 10 16.9681 11.6184 16.9681 14.5482V17.1235H14V20.5025H16.9681V28.6711H20.621V20.5025H23.3447Z" fill="#0D0D0D"/>
</symbol>

<symbol id="github-icon" width="38" height="38" viewBox="0 0 38 38" fill="none">
<rect width="38" height="38" rx="5" fill="#EFEEF3"/>
<path d="M15.6895 24.7016C15.6895 24.7823 15.5968 24.8468 15.4798 24.8468C15.3468 24.8589 15.254 24.7944 15.254 24.7016C15.254 24.621 15.3468 24.5565 15.4637 24.5565C15.5847 24.5444 15.6895 24.6089 15.6895 24.7016ZM14.4355 24.5202C14.4073 24.6008 14.4879 24.6935 14.6089 24.7177C14.7137 24.7581 14.8347 24.7177 14.8589 24.6371C14.8831 24.5565 14.8065 24.4637 14.6855 24.4274C14.5806 24.3992 14.4637 24.4395 14.4355 24.5202ZM16.2177 24.4516C16.1008 24.4798 16.0202 24.5565 16.0323 24.6492C16.0444 24.7298 16.1492 24.7823 16.2702 24.754C16.3871 24.7258 16.4677 24.6492 16.4556 24.5685C16.4435 24.4919 16.3347 24.4395 16.2177 24.4516ZM18.871 9C13.2782 9 9 13.246 9 18.8387C9 23.3105 11.8145 27.1371 15.8347 28.4839C16.3508 28.5766 16.5323 28.2581 16.5323 27.996C16.5323 27.746 16.5202 26.3669 16.5202 25.5202C16.5202 25.5202 13.6976 26.125 13.1048 24.3185C13.1048 24.3185 12.6452 23.1452 11.9839 22.8427C11.9839 22.8427 11.0605 22.2097 12.0484 22.2218C12.0484 22.2218 13.0524 22.3024 13.6048 23.2621C14.4879 24.8185 15.9677 24.371 16.5444 24.1048C16.6371 23.4597 16.8992 23.0121 17.1895 22.746C14.9355 22.496 12.6613 22.1694 12.6613 18.2903C12.6613 17.1815 12.9677 16.625 13.6129 15.9153C13.5081 15.6532 13.1653 14.5726 13.7177 13.1774C14.5605 12.9153 16.5 14.2661 16.5 14.2661C17.3065 14.0403 18.1734 13.9234 19.0323 13.9234C19.8911 13.9234 20.7581 14.0403 21.5645 14.2661C21.5645 14.2661 23.504 12.9113 24.3468 13.1774C24.8992 14.5766 24.5565 15.6532 24.4516 15.9153C25.0968 16.629 25.4919 17.1855 25.4919 18.2903C25.4919 22.1815 23.1169 22.4919 20.8629 22.746C21.2339 23.0645 21.5484 23.6694 21.5484 24.6169C21.5484 25.9758 21.5363 27.6573 21.5363 27.9879C21.5363 28.25 21.7218 28.5685 22.2339 28.4758C26.2661 27.1371 29 23.3105 29 18.8387C29 13.246 24.4637 9 18.871 9ZM12.9194 22.9073C12.8669 22.9476 12.879 23.0403 12.9476 23.1169C13.0121 23.1815 13.1048 23.2097 13.1573 23.1573C13.2097 23.1169 13.1976 23.0242 13.129 22.9476C13.0645 22.8831 12.9718 22.8548 12.9194 22.9073ZM12.4839 22.5806C12.4556 22.6331 12.496 22.6976 12.5766 22.7379C12.6411 22.7782 12.7218 22.7661 12.75 22.7097C12.7782 22.6573 12.7379 22.5927 12.6573 22.5524C12.5766 22.5282 12.5121 22.5403 12.4839 22.5806ZM13.7903 24.0161C13.7258 24.0685 13.75 24.1895 13.8427 24.2661C13.9355 24.3589 14.0524 24.371 14.1048 24.3065C14.1573 24.254 14.1331 24.1331 14.0524 24.0565C13.9637 23.9637 13.8427 23.9516 13.7903 24.0161ZM13.3306 23.4234C13.2661 23.4637 13.2661 23.5685 13.3306 23.6613C13.3952 23.754 13.504 23.7944 13.5565 23.754C13.621 23.7016 13.621 23.5968 13.5565 23.504C13.5 23.4113 13.3952 23.371 13.3306 23.4234Z" fill="#0D0D0D"/>
</symbol>

<symbol id="instagram-icon" width="38" height="38" viewBox="0 0 38 38" fill="none">
<rect width="38" height="38" rx="5" fill="#EFEEF3"/>
<path d="M19.0078 13.8739C16.1685 13.8739 13.8783 16.1641 13.8783 19.0033C13.8783 21.8426 16.1685 24.1328 19.0078 24.1328C21.8471 24.1328 24.1373 21.8426 24.1373 19.0033C24.1373 16.1641 21.8471 13.8739 19.0078 13.8739ZM19.0078 22.3382C17.173 22.3382 15.673 20.8426 15.673 19.0033C15.673 17.1641 17.1685 15.6685 19.0078 15.6685C20.8471 15.6685 22.3426 17.1641 22.3426 19.0033C22.3426 20.8426 20.8426 22.3382 19.0078 22.3382ZM25.5435 13.6641C25.5435 14.3292 25.0078 14.8605 24.3471 14.8605C23.6819 14.8605 23.1506 14.3248 23.1506 13.6641C23.1506 13.0033 23.6864 12.4676 24.3471 12.4676C25.0078 12.4676 25.5435 13.0033 25.5435 13.6641ZM28.9408 14.8783C28.8649 13.2757 28.4989 11.856 27.3247 10.6864C26.1551 9.51674 24.7355 9.15067 23.1328 9.07031C21.481 8.97656 16.5301 8.97656 14.8783 9.07031C13.2801 9.14621 11.8605 9.51228 10.6864 10.6819C9.51228 11.8516 9.15067 13.2712 9.07031 14.8739C8.97656 16.5257 8.97656 21.4766 9.07031 23.1283C9.14621 24.731 9.51228 26.1507 10.6864 27.3203C11.8605 28.49 13.2757 28.856 14.8783 28.9364C16.5301 29.0301 21.481 29.0301 23.1328 28.9364C24.7355 28.8605 26.1551 28.4944 27.3247 27.3203C28.4944 26.1507 28.8605 24.731 28.9408 23.1283C29.0346 21.4766 29.0346 16.5301 28.9408 14.8783ZM26.8069 24.9007C26.4587 25.7757 25.7846 26.4498 24.9051 26.8025C23.5881 27.3248 20.4632 27.2042 19.0078 27.2042C17.5524 27.2042 14.423 27.3203 13.1105 26.8025C12.2355 26.4542 11.5614 25.7801 11.2087 24.9007C10.6864 23.5837 10.8069 20.4587 10.8069 19.0033C10.8069 17.548 10.6908 14.4185 11.2087 13.106C11.5569 12.231 12.231 11.5569 13.1105 11.2042C14.4274 10.6819 17.5524 10.8025 19.0078 10.8025C20.4632 10.8025 23.5926 10.6864 24.9051 11.2042C25.7801 11.5525 26.4542 12.2266 26.8069 13.106C27.3292 14.423 27.2087 17.548 27.2087 19.0033C27.2087 20.4587 27.3292 23.5882 26.8069 24.9007Z" fill="#0D0D0D"/>
</symbol>

<symbol id="twitter-icon" width="38" height="38" viewBox="0 0 38 38" fill="none">
<rect width="38" height="38" rx="5" fill="#EFEEF3"/>
<path d="M26.9441 15.0482C26.9568 15.2259 26.9568 15.4036 26.9568 15.5812C26.9568 21 22.8325 27.2436 15.2944 27.2436C12.9721 27.2436 10.8147 26.571 9 25.4036C9.32996 25.4416 9.64719 25.4543 9.98984 25.4543C11.9061 25.4543 13.67 24.8071 15.0787 23.703C13.2766 23.665 11.7665 22.4848 11.2462 20.8604C11.5 20.8984 11.7538 20.9238 12.0203 20.9238C12.3883 20.9238 12.7564 20.873 13.099 20.7843C11.2208 20.4035 9.81215 18.7538 9.81215 16.7614V16.7107C10.3578 17.0152 10.9924 17.2056 11.6649 17.2309C10.5609 16.4949 9.83754 15.2386 9.83754 13.8172C9.83754 13.0558 10.0405 12.3579 10.3959 11.7487C12.4137 14.236 15.4467 15.8604 18.8477 16.038C18.7842 15.7335 18.7461 15.4163 18.7461 15.099C18.7461 12.8401 20.5736 11 22.8451 11C24.0253 11 25.0913 11.4949 25.84 12.2944C26.7664 12.1168 27.6547 11.7741 28.4416 11.3046C28.137 12.2564 27.4898 13.0559 26.6395 13.5634C27.4644 13.4746 28.2639 13.2462 28.9999 12.9289C28.4416 13.7411 27.7436 14.4644 26.9441 15.0482Z" fill="#3DB370"/>
</symbol>

<symbol id="logo" width="33" height="33" viewBox="0 0 33 33" fill="none">
<path d="M24.1011 16.5C24.1011 16.0945 24.3801 15.7398 24.7776 15.6478C27.7445 14.9559 29.8158 12.3427 29.8158 9.28711C29.8158 5.68162 26.89 2.75 23.2975 2.75C20.2319 2.75 17.5476 4.93303 16.9194 7.93851L24.1011 16.5ZM24.1011 16.5C24.1011 16.9052 24.3798 17.2598 24.7769 17.3521L24.1011 16.5ZM16.9194 25.0615C17.5476 28.067 20.2319 30.25 23.2975 30.25C26.89 30.25 29.8158 27.3184 29.8158 23.7129C29.8158 20.6573 27.7445 18.0441 24.7776 17.3522L16.9194 25.0615ZM16.9194 25.0615C16.8351 24.6567 16.4785 24.3654 16.0639 24.3654C15.6494 24.3654 15.2928 24.6567 15.2085 25.0615C14.5801 28.067 11.8957 30.25 8.83015 30.25C5.23764 30.25 2.31186 27.3184 2.31186 23.7129C2.31186 20.6573 4.38316 18.0441 7.35008 17.3522C7.74759 17.2602 8.0266 16.9055 8.0266 16.5C8.0266 16.0948 7.74793 15.7402 7.35082 15.6479L16.9194 25.0615ZM15.2085 7.93851C14.5801 4.93301 11.8957 2.75 8.83015 2.75C5.23764 2.75 2.31186 5.68162 2.31186 9.28711C2.31186 12.3427 4.38316 14.9559 7.35008 15.6478L15.2085 7.93851ZM15.2085 7.93851C15.2928 8.34326 15.6494 8.63464 16.0639 8.63464C16.4783 8.63464 16.8349 8.34341 16.9193 7.93882L15.2085 7.93851ZM8.83015 32C11.8854 32 14.636 30.2954 16.0639 27.7195C17.4916 30.2954 20.2421 32 23.2975 32C27.8572 32 31.5638 28.2816 31.5638 23.7129C31.5638 20.6523 29.9198 17.9359 27.3694 16.5C29.9198 15.0641 31.5638 12.3477 31.5638 9.28711C31.5638 4.7184 27.8572 1 23.2975 1C20.2421 1 17.4916 2.70458 16.0639 5.2805C14.636 2.70458 11.8854 1 8.83015 1C4.27048 1 0.563843 4.7184 0.563843 9.28711C0.563843 12.3477 2.20788 15.0641 4.75833 16.5C2.20788 17.9359 0.563843 20.6523 0.563843 23.7129C0.563843 28.2816 4.27048 32 8.83015 32Z" fill="#3DB370" stroke="#3DB370"/>
</symbol>

</svg>
