<?xml version="1.0" standalone="no"?>
<!DOCTYPE svg PUBLIC "-//W3C//DTD SVG 20010904//EN"
 "http://www.w3.org/TR/2001/REC-SVG-20010904/DTD/svg10.dtd">
<svg version="1.0" xmlns="http://www.w3.org/2000/svg"
 width="450.000000pt" height="360.000000pt" viewBox="0 0 450.000000 360.000000"
 preserveAspectRatio="xMidYMid meet">

<g transform="translate(0.000000,360.000000) scale(0.100000,-0.100000)"
fill="#000000" stroke="none">
<path d="M2522 2939 c-68 -142 -198 -300 -307 -372 -48 -32 -54 -38 -30 -33
39 9 168 69 207 97 28 20 30 21 20 3 -6 -11 -34 -41 -62 -68 -69 -65 -176
-113 -287 -129 l-88 -13 50 -17 c27 -10 74 -20 105 -24 49 -6 52 -8 25 -14
-86 -19 -221 -8 -310 26 -16 6 -14 1 9 -24 34 -35 119 -81 152 -81 48 0 30
-18 -39 -38 -40 -12 -112 -33 -162 -48 -159 -47 -279 -124 -311 -201 -17 -39
-18 -118 -3 -162 l11 -32 22 63 c22 67 72 142 127 193 33 31 32 27 -8 -38 -40
-63 -56 -148 -43 -214 11 -49 20 -65 69 -113 98 -97 283 -211 455 -280 143
-56 309 -144 354 -186 37 -36 43 -47 40 -75 -3 -29 -8 -36 -38 -46 l-35 -11
28 -7 c41 -11 76 2 95 35 23 40 32 38 32 -7 0 -54 -33 -94 -121 -147 -153 -92
-197 -188 -124 -275 29 -34 110 -75 170 -85 l40 -7 -50 50 c-43 45 -50 57 -50
93 0 37 6 46 55 90 47 42 137 106 256 182 72 46 99 136 59 203 -24 42 -243
186 -379 252 -187 89 -230 128 -273 252 -17 50 -24 93 -25 145 0 93 25 149
113 249 114 130 205 285 262 448 30 87 32 100 32 237 0 172 -9 199 -43 129z"/>
<path d="M2750 2441 c-75 -24 -130 -54 -108 -59 9 -1 47 11 85 28 37 18 88 35
113 40 l45 8 -40 0 c-22 1 -65 -7 -95 -17z"/>
<path d="M2728 2330 c-24 -15 -50 -35 -58 -45 -14 -18 -14 -18 11 -2 25 17 26
16 37 -8 6 -14 19 -25 27 -25 25 0 55 19 55 35 0 21 15 26 36 11 17 -13 16
-15 -16 -35 -19 -11 -51 -21 -70 -22 l-35 -1 30 -13 c18 -8 34 -10 40 -4 5 5
17 9 27 9 9 0 21 6 25 14 4 7 26 22 48 33 l39 21 -30 6 c-16 4 -41 17 -54 29
-33 30 -61 29 -112 -3z"/>
<path d="M3011 2335 c-2 -34 -34 -111 -58 -137 -9 -10 -14 -21 -10 -24 3 -3
19 13 36 36 32 45 46 91 38 131 -4 21 -4 20 -6 -6z"/>
<path d="M2943 2115 c0 -27 2 -38 4 -22 2 15 2 37 0 50 -2 12 -4 0 -4 -28z"/>
<path d="M2420 1824 c-14 -11 -33 -25 -43 -31 -16 -9 -14 -13 22 -46 37 -34
46 -37 99 -37 55 0 60 2 102 45 24 24 42 46 39 48 -52 44 -177 56 -219 21z
m115 -44 c-3 -5 -17 -10 -31 -10 -13 0 -24 5 -24 10 0 6 14 10 31 10 17 0 28
-4 24 -10z"/>
<path d="M2710 1677 c-19 -22 -59 -56 -88 -75 -69 -46 -137 -49 -209 -7 -28
17 -42 22 -34 12 7 -9 37 -28 67 -43 42 -21 62 -25 91 -19 50 9 100 36 147 79
21 20 40 35 41 34 2 -2 12 -41 24 -88 37 -147 111 -280 184 -332 l32 -22 -36
40 c-75 85 -132 214 -164 374 -10 47 -18 85 -19 86 0 0 -17 -17 -36 -39z"/>
</g>
</svg>
